<svg
  width="128"
  height="128"
  viewBox="0 0 128 128"
  xmlns="http://www.w3.org/2000/svg"
  role="img"
  aria-label="Logo Leitor de Texto"
>
  <defs>
    <linearGradient id="tr-bg" x1="0" y1="0" x2="1" y2="1">
      <stop offset="0%" stop-color="#2ecc71" />
      <stop offset="100%" stop-color="#3498db" />
    </linearGradient>
    <filter id="tr-shadow" x="-20%" y="-20%" width="140%" height="140%">
      <feDropShadow dx="0" dy="4" stdDeviation="6" flood-opacity="0.35" />
    </filter>
  </defs>

  <rect
    x="10"
    y="10"
    width="108"
    height="108"
    rx="28"
    fill="url(#tr-bg)"
    filter="url(#tr-shadow)"
  />

  <rect
    x="28"
    y="30"
    width="56"
    height="68"
    rx="10"
    fill="rgba(255,255,255,0.96)"
  />

  <rect x="36" y="40" width="40" height="6" rx="3" fill="#2c3e50" opacity="0.92" />
  <rect x="36" y="54" width="34" height="6" rx="3" fill="#2c3e50" opacity="0.82" />
  <rect x="36" y="68" width="28" height="6" rx="3" fill="#2c3e50" opacity="0.75" />
  <rect x="36" y="82" width="22" height="6" rx="3" fill="#2c3e50" opacity="0.7" />

  <circle cx="92" cy="64" r="22" fill="rgba(44,62,80,0.96)" />

  <polygon
    points="86,54 104,64 86,74"
    fill="#ffffff"
  />

  <path
    d="M 102 50
       C 110 56, 110 72, 102 78"
    fill="none"
    stroke="#E0F2FE"
    stroke-width="2.2"
    stroke-linecap="round"
    opacity="0.9"
  />
  <path
    d="M 106 46
       C 116 54, 116 74, 106 82"
    fill="none"
    stroke="#BAE6FD"
    stroke-width="2"
    stroke-linecap="round"
    opacity="0.75"
  />
</svg>
