<svg xmlns="http://www.w3.org/2000/svg" version="1.0" width="100%" height="100%"
              viewBox="0 0 329.000000 334.000000" preserveAspectRatio="xMidYMid meet" class="max-w-full max-h-full">

              <g transform="translate(0.000000,334.000000) scale(0.100000,-0.100000)" fill="#000000" stroke="none">
                <path
                  d="M0 1670 l0 -1670 1645 0 1645 0 0 1670 0 1670 -1645 0 -1645 0 0 -1670z m580 1260 l0 -210 -210 0 -210 0 0 210 0 210 210 0 210 0 0 -210z m240 180 c0 -27 -3 -30 -30 -30 -27 0 -30 3 -30 30 0 27 3 30 30 30 27 0 30 -3 30 -30z m420 -30 l0 -60 30 0 c27 0 30 3 30 30 0 27 3 30 30 30 27 0 30 3 30 30 0 27 3 30 30 30 27 0 30 -3 30 -30 0 -27 -3 -30 -30 -30 -27 0 -30 -3 -30 -30 l0 -30 60 0 60 0 0 60 0 60 150 0 150 0 0 -29 c0 -25 -4 -30 -27 -33 -22 -2 -29 -9 -31 -30 -3 -28 -3 -28 57 -28 l61 0 0 -60 0 -60 30 0 c27 0 30 -3 30 -30 0 -27 3 -30 30 -30 l30 0 0 90 0 90 -30 0 c-27 0 -30 3 -30 30 0 27 -3 30 -30 30 -27 0 -30 3 -30 30 l0 30 90 0 90 0 0 -29 c0 -25 -4 -30 -27 -33 -22 -2 -29 -9 -31 -30 -3 -28 -3 -28 57 -28 l61 0 0 -60 0 -60 30 0 30 0 0 90 0 90 -30 0 c-27 0 -30 3 -30 30 l0 30 180 0 180 0 0 -30 0 -30 60 0 60 0 0 30 c0 27 3 30 30 30 l30 0 0 -89 0 -90 -27 -3 c-22 -2 -29 -9 -31 -30 -3 -24 -8 -28 -33 -28 -29 0 -29 0 -29 60 l0 60 -60 0 -60 0 0 30 0 31 -87 -3 c-88 -3 -88 -3 -91 -30 -3 -28 -3 -28 57 -28 l61 0 0 -59 c0 -58 -1 -60 -27 -63 l-28 -3 -3 -117 -3 -118 61 0 60 0 0 30 c0 27 -3 30 -30 30 -27 0 -30 3 -30 30 0 27 3 30 30 30 27 0 30 3 30 30 l0 30 60 0 60 0 0 -60 0 -60 -30 0 -30 0 0 -149 0 -150 -27 -3 c-28 -3 -28 -3 -31 -90 l-3 -88 -29 0 c-27 0 -30 -3 -30 -30 0 -27 3 -30 30 -30 27 0 30 -3 30 -30 0 -27 3 -30 30 -30 l30 0 0 -120 0 -120 -60 0 -60 0 0 90 0 90 -30 0 -30 0 0 60 0 60 -30 0 -30 0 0 -120 0 -120 30 0 c27 0 30 -3 30 -29 0 -25 -4 -30 -27 -33 -26 -3 -28 -6 -31 -60 -3 -53 -5 -57 -30 -60 -25 -3 -27 -6 -30 -60 l-3 -58 31 0 30 0 0 -59 c0 -58 -1 -60 -27 -63 -22 -2 -29 -9 -31 -30 -3 -28 -3 -28 57 -28 l61 0 0 -30 c0 -27 3 -30 30 -30 l30 0 0 90 0 90 -30 0 -30 0 0 60 0 60 60 0 60 0 0 30 c0 27 -3 30 -30 30 -27 0 -30 3 -30 30 0 27 3 30 30 30 27 0 30 -3 30 -30 0 -27 3 -30 30 -30 27 0 30 3 30 30 l0 30 150 0 150 0 0 30 c0 27 -3 30 -30 30 -27 0 -30 3 -30 30 0 27 3 30 30 30 27 0 30 -3 30 -30 0 -27 3 -30 30 -30 l30 0 0 60 0 60 -30 0 c-27 0 -30 3 -30 30 l0 30 60 0 60 0 0 30 c0 27 -3 30 -30 30 -27 0 -30 3 -30 30 0 27 -3 30 -30 30 -27 0 -30 3 -30 30 0 27 3 30 30 30 27 0 30 3 30 30 0 27 -3 30 -30 30 -27 0 -30 3 -30 31 0 27 -3 30 -27 27 -28 -3 -28 -3 -31 -90 l-3 -88 -29 0 -30 0 0 150 0 150 -60 0 -60 0 0 30 0 30 60 0 60 0 0 -30 c0 -27 3 -30 30 -30 27 0 30 3 30 30 0 27 3 30 30 30 27 0 30 3 30 30 l0 30 -60 0 -60 0 0 30 c0 27 -3 30 -30 30 -27 0 -30 -3 -30 -30 0 -27 -3 -30 -30 -30 -27 0 -30 3 -30 30 0 27 3 30 30 30 l30 0 0 60 0 60 30 0 30 0 0 -60 0 -60 60 0 60 0 0 -30 c0 -27 3 -30 30 -30 27 0 30 -3 30 -30 0 -27 3 -30 30 -30 27 0 30 3 30 30 0 27 3 30 30 30 27 0 30 3 30 30 0 27 3 30 30 30 27 0 30 -3 30 -30 0 -27 3 -30 30 -30 27 0 30 -3 30 -30 0 -27 3 -30 30 -30 27 0 30 -3 30 -29 0 -25 -4 -30 -27 -33 -22 -2 -29 -9 -31 -30 -3 -25 0 -28 27 -28 l31 0 0 -90 0 -90 -30 0 c-27 0 -30 -3 -30 -30 0 -27 3 -30 30 -30 l30 0 0 -210 0 -210 -30 0 c-27 0 -30 -3 -30 -30 0 -27 3 -30 30 -30 l30 0 0 -120 0 -120 -30 0 c-27 0 -30 -3 -30 -30 0 -27 3 -30 30 -30 l30 0 0 -60 0 -60 -30 0 c-27 0 -30 -3 -30 -30 0 -27 3 -30 30 -30 l30 0 0 -89 0 -90 -27 -3 c-27 -3 -28 -6 -31 -60 l-3 -58 31 0 30 0 0 -60 0 -60 -30 0 -30 0 0 60 0 60 -30 0 -30 0 0 120 0 120 30 0 c27 0 30 3 30 30 0 27 -3 30 -30 30 -27 0 -30 3 -30 30 0 27 3 30 30 30 l30 0 0 60 0 60 -30 0 c-27 0 -30 -3 -30 -30 0 -27 -3 -30 -30 -30 -27 0 -30 3 -30 30 0 27 -3 30 -30 30 l-30 0 0 61 c0 60 0 60 -27 57 -22 -2 -29 -9 -31 -30 -3 -24 -8 -28 -33 -28 -26 0 -29 -3 -29 -30 l0 -30 -90 0 -90 0 0 120 0 120 -60 0 -60 0 0 -89 0 -90 -27 -3 c-22 -2 -29 -9 -31 -30 -3 -25 0 -28 27 -28 28 0 31 -3 31 -30 0 -27 -3 -30 -30 -30 -27 0 -30 -3 -30 -30 0 -27 3 -30 30 -30 27 0 30 -3 30 -30 0 -27 3 -30 30 -30 27 0 30 3 30 30 0 27 3 30 30 30 27 0 30 3 30 30 l0 30 150 0 150 0 0 -30 c0 -28 -1 -29 -57 -32 -55 -3 -58 -4 -61 -30 -3 -25 0 -28 27 -28 l31 0 0 -60 0 -60 30 0 30 0 0 60 0 60 30 0 30 0 0 -60 0 -60 -30 0 c-27 0 -30 -3 -30 -30 0 -27 3 -30 30 -30 l30 0 0 -90 0 -90 -30 0 c-27 0 -30 -3 -30 -29 0 -25 -4 -30 -27 -33 -22 -2 -29 -9 -31 -31 -3 -24 0 -27 27 -27 l31 0 0 -90 0 -90 30 0 30 0 0 -60 0 -60 30 0 30 0 0 -60 0 -60 30 0 c27 0 30 -3 30 -30 0 -27 3 -30 30 -30 27 0 30 -3 30 -30 l0 -30 -60 0 -60 0 0 60 0 60 -90 0 -90 0 0 60 0 61 -57 -3 c-55 -3 -58 -5 -61 -30 -3 -21 -9 -27 -30 -30 -21 -2 -28 -9 -30 -31 -3 -24 0 -27 27 -27 28 0 31 -3 31 -30 0 -28 -1 -29 -57 -32 -55 -3 -58 -4 -61 -30 -3 -24 -8 -28 -33 -28 -29 0 -29 0 -29 60 l0 60 -30 0 -30 0 0 -60 0 -60 -120 0 -120 0 0 30 c0 27 3 30 30 30 27 0 30 3 30 30 0 27 3 30 30 30 27 0 30 -3 30 -30 0 -27 3 -30 30 -30 27 0 30 3 30 30 0 27 3 30 30 30 27 0 30 3 30 30 0 27 3 30 30 30 27 0 30 3 30 30 0 27 -3 30 -30 30 -27 0 -30 3 -30 30 0 27 -3 30 -30 30 -27 0 -30 -3 -30 -30 l0 -30 -60 0 -60 0 0 30 0 30 60 0 60 0 0 30 c0 27 -3 30 -30 30 -27 0 -30 3 -30 30 l0 30 90 0 90 0 0 30 0 31 -147 -3 -148 -3 -3 -57 c-3 -53 -5 -57 -30 -60 -21 -2 -28 -9 -30 -30 -3 -25 0 -28 27 -28 28 0 31 -3 31 -30 l0 -30 -60 0 -60 0 0 -30 c0 -27 3 -30 30 -30 l30 0 0 -90 0 -90 -30 0 -30 0 0 60 0 60 -30 0 c-27 0 -30 -3 -30 -30 0 -27 -3 -30 -30 -30 -27 0 -30 3 -30 30 0 27 3 30 30 30 l30 0 0 61 c0 60 0 60 -27 57 -22 -2 -29 -9 -31 -30 -3 -24 -8 -28 -33 -28 -26 0 -29 3 -29 30 0 27 -3 30 -30 30 l-30 0 0 60 0 60 60 0 60 0 0 30 c0 27 3 30 30 30 27 0 30 3 30 30 l0 31 -57 -3 c-55 -3 -58 -5 -61 -30 -3 -25 -7 -27 -60 -30 l-57 -3 -3 -87 -3 -87 -57 -3 -57 -3 -3 -57 -3 -58 31 0 c27 0 30 3 30 30 l0 30 60 0 60 0 0 -60 0 -60 30 0 c27 0 30 -3 30 -30 l0 -30 -90 0 -90 0 0 30 c0 27 -3 30 -30 30 -27 0 -30 3 -30 31 0 27 -3 30 -27 27 -22 -2 -29 -9 -31 -30 -3 -21 -9 -27 -30 -30 -21 -2 -28 -9 -30 -30 -3 -24 -8 -28 -33 -28 -26 0 -29 3 -29 30 0 27 -3 30 -30 30 -27 0 -30 3 -30 31 0 27 -3 30 -27 27 -27 -3 -28 -6 -31 -60 l-3 -58 -59 0 c-60 0 -60 0 -60 30 0 27 -3 30 -30 30 -27 0 -30 3 -30 31 0 27 -3 30 -27 27 -27 -3 -28 -6 -31 -60 l-3 -58 -89 0 -90 0 0 30 c0 27 3 30 30 30 l30 0 0 60 0 60 -30 0 c-27 0 -30 -3 -30 -29 0 -25 -4 -30 -27 -33 -22 -2 -29 -9 -31 -31 -3 -23 -8 -27 -33 -27 -26 0 -29 -3 -29 -30 l0 -30 -90 0 -90 0 0 90 0 90 30 0 c27 0 30 3 30 30 0 27 -3 30 -30 30 l-30 0 0 120 0 120 -60 0 -60 0 0 30 c0 27 3 30 30 30 27 0 30 3 30 30 l0 30 -60 0 -60 0 0 30 0 30 -60 0 -60 0 0 60 0 60 30 0 c27 0 30 3 30 30 0 27 -3 30 -30 30 l-30 0 0 60 0 60 30 0 c27 0 30 3 30 30 l0 30 -60 0 -60 0 0 -59 c0 -58 -1 -60 -27 -63 -22 -2 -29 -9 -31 -30 -3 -25 0 -28 27 -28 l31 0 0 -59 c0 -58 -1 -60 -27 -63 -22 -2 -29 -9 -31 -30 -3 -25 0 -28 27 -28 28 0 31 -3 31 -30 l0 -30 60 0 c60 0 60 0 60 -29 0 -25 -4 -30 -27 -33 -22 -2 -29 -9 -31 -30 l-3 -28 -90 0 -89 0 0 30 c0 27 3 30 30 30 l30 0 0 60 0 60 -30 0 -30 0 0 210 0 210 30 0 c27 0 30 -3 30 -30 0 -27 3 -30 30 -30 l30 0 0 60 0 60 -30 0 c-27 0 -30 3 -30 30 l0 30 60 0 60 0 0 -60 0 -60 30 0 c27 0 30 -3 30 -30 0 -27 3 -30 30 -30 27 0 30 3 30 30 0 27 3 30 30 30 27 0 30 3 30 30 0 27 3 30 30 30 27 0 30 3 30 30 0 27 -3 30 -30 30 -27 0 -30 3 -30 30 0 27 3 30 30 30 27 0 30 -3 30 -30 0 -27 3 -30 30 -30 l30 0 0 60 0 61 -87 -3 -88 -3 -3 -57 c-3 -57 -4 -58 -32 -58 -27 0 -30 3 -30 30 l0 30 -90 0 -90 0 0 90 0 90 -30 0 -30 0 0 120 0 120 60 0 60 0 0 30 c0 27 -3 30 -30 30 -27 0 -30 3 -30 30 0 27 3 30 30 30 27 0 30 -3 30 -30 0 -27 3 -30 30 -30 27 0 30 3 30 30 0 27 3 30 30 30 27 0 30 -3 30 -30 0 -27 3 -30 30 -30 27 0 30 -3 30 -30 0 -27 3 -30 30 -30 27 0 30 3 30 30 0 27 3 30 30 30 27 0 30 3 30 30 0 27 -3 30 -30 30 -27 0 -30 3 -30 30 l0 30 -120 0 -120 0 0 60 0 60 -30 0 c-27 0 -30 -3 -30 -30 0 -27 -3 -30 -30 -30 -27 0 -30 3 -30 30 0 27 3 30 30 30 27 0 30 3 30 30 0 27 -3 30 -30 30 -27 0 -30 3 -30 30 0 27 3 30 30 30 l30 0 0 60 0 60 30 0 c27 0 30 3 30 30 0 27 3 30 30 30 27 0 30 3 30 30 0 27 -3 30 -30 30 -27 0 -30 3 -30 30 l0 30 -60 0 -60 0 0 30 0 30 90 0 90 0 0 -60 0 -60 60 0 60 0 0 30 c0 27 -3 30 -30 30 -27 0 -30 3 -30 30 l0 30 120 0 120 0 0 60 0 60 30 0 c27 0 30 3 30 30 l0 30 60 0 60 0 0 -60 0 -60 -30 0 -30 0 0 -60 0 -60 30 0 c27 0 30 -3 30 -30 0 -27 -3 -30 -30 -30 -27 0 -30 -3 -30 -30 0 -27 3 -30 30 -30 27 0 30 -3 30 -30 0 -27 3 -30 30 -30 27 0 30 -3 30 -30 l0 -29 -87 -3 c-88 -3 -88 -3 -91 -30 l-3 -28 90 0 91 0 0 -30 0 -29 -87 -3 c-88 -3 -88 -3 -91 -30 -3 -24 -8 -28 -33 -28 -25 0 -29 -4 -29 -30 0 -28 -1 -29 -57 -32 -55 -3 -58 -4 -61 -30 -3 -25 0 -28 27 -28 28 0 31 -3 31 -30 l0 -30 90 0 90 0 0 90 0 90 60 0 60 0 0 -60 0 -60 30 0 c27 0 30 -3 30 -30 0 -27 -3 -30 -30 -30 -27 0 -30 3 -30 31 0 27 -3 30 -27 27 -22 -2 -29 -9 -31 -30 -3 -24 -8 -28 -33 -28 -29 0 -29 0 -29 -60 l0 -60 30 0 c27 0 30 3 30 30 0 27 3 30 30 30 27 0 30 -3 30 -30 0 -27 3 -30 30 -30 27 0 30 -3 30 -30 0 -27 -3 -30 -30 -30 -27 0 -30 -3 -30 -30 0 -27 3 -30 30 -30 l30 0 0 -90 0 -90 30 0 30 0 0 60 0 60 60 0 60 0 0 30 0 30 60 0 60 0 0 30 c0 27 3 30 30 30 27 0 30 -3 30 -30 0 -27 -3 -30 -30 -30 -27 0 -30 -3 -30 -30 l0 -30 60 0 60 0 0 30 c0 27 3 30 30 30 27 0 30 3 30 30 0 27 -3 30 -30 30 l-30 0 0 60 0 60 -30 0 c-27 0 -30 -3 -30 -30 0 -27 -3 -30 -30 -30 -27 0 -30 3 -30 30 0 27 3 30 30 30 27 0 30 3 30 30 0 27 -3 30 -30 30 l-30 0 0 150 0 150 -30 0 c-27 0 -30 -3 -30 -29 0 -25 -4 -30 -27 -33 -28 -3 -28 -3 -31 -90 l-3 -88 31 0 c27 0 30 -3 30 -30 0 -27 -3 -30 -30 -30 -27 0 -30 -3 -30 -30 0 -27 3 -30 30 -30 l30 0 0 -60 0 -60 -30 0 -30 0 0 60 0 60 -30 0 c-27 0 -30 -3 -30 -30 0 -27 -3 -30 -30 -30 -27 0 -30 3 -30 30 0 27 3 30 30 30 27 0 30 3 30 30 0 27 -3 30 -30 30 l-30 0 0 90 0 90 30 0 c27 0 30 3 30 30 l0 30 -60 0 -60 0 0 120 0 120 -30 0 -30 0 0 60 0 60 30 0 c27 0 30 -3 30 -30 0 -27 3 -30 30 -30 l30 0 0 60 0 60 -60 0 -60 0 0 90 0 90 30 0 30 0 0 120 0 120 -30 0 c-27 0 -30 3 -30 30 l0 30 180 0 180 0 0 -60z m1860 -150 l0 -210 -210 0 -210 0 0 210 0 210 210 0 210 0 0 -210z m-2220 30 l0 -60 -30 0 c-27 0 -30 3 -30 31 0 27 -3 30 -27 27 -22 -2 -29 -9 -31 -30 -3 -24 -8 -28 -33 -28 -26 0 -29 3 -29 30 0 27 -3 30 -30 30 -27 0 -30 3 -30 30 l0 30 120 0 120 0 0 -60z m1680 -630 c0 -27 -3 -30 -30 -30 -27 0 -30 -3 -30 -30 0 -27 -3 -30 -30 -30 -27 0 -30 3 -30 30 0 27 3 30 30 30 27 0 30 3 30 30 0 27 3 30 30 30 27 0 30 -3 30 -30z m60 -300 c0 -27 -3 -30 -30 -30 -27 0 -30 3 -30 30 0 27 3 30 30 30 27 0 30 -3 30 -30z m0 -120 l0 -30 -60 0 -60 0 0 30 0 30 60 0 60 0 0 -30z m420 -1200 c0 -27 3 -30 30 -30 l30 0 0 -120 0 -120 -30 0 c-27 0 -30 3 -30 30 0 27 -3 30 -30 30 l-30 0 0 120 0 120 30 0 c27 0 30 -3 30 -30z m-2460 -300 l0 -210 -210 0 -210 0 0 210 0 210 210 0 210 0 0 -210z m2340 -180 l0 -30 -90 0 -90 0 0 30 0 30 90 0 90 0 0 -30z" />
                <path
                  d="M220 2930 l0 -150 150 0 150 0 0 150 0 150 -150 0 -150 0 0 -150z m240 0 l0 -90 -90 0 -90 0 0 90 0 90 90 0 90 0 0 -90z" />
                <path
                  d="M1007 3073 c-4 -3 -7 -17 -7 -30 0 -19 5 -23 30 -23 27 0 30 -3 30 -29 0 -25 -4 -30 -27 -33 -22 -2 -29 -9 -31 -30 -3 -25 0 -28 27 -28 28 0 31 3 31 30 0 27 3 30 30 30 l30 0 0 -60 0 -60 30 0 30 0 0 -120 0 -120 -30 0 -30 0 0 90 0 90 -30 0 c-27 0 -30 3 -30 31 0 27 -3 30 -27 27 -22 -2 -29 -9 -31 -30 -3 -21 -9 -27 -30 -30 -21 -2 -28 -9 -30 -30 -3 -25 0 -28 27 -28 28 0 31 3 31 30 0 27 3 30 30 30 l30 0 0 -120 0 -120 -30 0 c-27 0 -30 -3 -30 -30 l0 -30 60 0 60 0 0 -30 c0 -27 3 -30 30 -30 l30 0 0 60 0 60 30 0 c27 0 30 -3 30 -30 l0 -30 60 0 60 0 0 -30 c0 -27 3 -30 30 -30 27 0 30 -3 30 -29 0 -25 -4 -30 -27 -33 -22 -2 -29 -9 -31 -30 -3 -25 0 -28 27 -28 28 0 31 3 31 30 0 27 3 30 30 30 27 0 30 -3 30 -30 l0 -30 90 0 90 0 0 -29 c0 -25 -4 -30 -27 -33 -27 -3 -28 -6 -31 -60 l-3 -58 31 0 c27 0 30 -3 30 -29 0 -25 -4 -30 -27 -33 -22 -2 -29 -9 -31 -30 -3 -25 0 -28 27 -28 l31 0 0 -60 0 -60 -60 0 -60 0 0 120 0 120 -60 0 -60 0 0 61 c0 60 0 60 -27 57 -28 -3 -28 -3 -31 -90 -3 -86 -3 -87 -30 -90 -21 -2 -28 -9 -30 -30 -3 -25 0 -28 27 -28 28 0 31 -3 31 -30 0 -27 3 -30 30 -30 l30 0 0 -60 0 -60 30 0 c27 0 30 3 30 30 0 27 3 30 30 30 27 0 30 -3 30 -30 l0 -30 60 0 60 0 0 30 c0 27 3 30 30 30 27 0 30 -3 30 -30 0 -27 3 -30 30 -30 l30 0 0 -90 0 -90 30 0 30 0 0 60 0 60 30 0 c27 0 30 -3 30 -30 l0 -30 60 0 c60 0 60 0 60 -30 0 -28 -1 -29 -57 -32 -55 -3 -58 -4 -61 -30 -3 -28 -3 -28 57 -28 61 0 61 0 61 -29 0 -25 -4 -30 -27 -33 -22 -2 -29 -9 -31 -30 -3 -21 -9 -27 -30 -30 -27 -3 -27 -4 -30 -90 l-3 -88 31 0 30 0 0 -60 0 -60 -60 0 -60 0 0 90 0 90 -30 0 c-27 0 -30 3 -30 30 0 27 3 30 30 30 l30 0 0 61 c0 60 0 60 -27 57 -27 -3 -28 -6 -31 -60 l-3 -57 -87 -3 c-87 -3 -87 -3 -90 -30 l-3 -28 90 0 91 0 0 -90 0 -90 -60 0 -60 0 0 61 c0 60 0 60 -27 57 -22 -2 -29 -9 -31 -30 -3 -21 -9 -27 -30 -30 l-27 -3 -3 -117 -3 -118 -59 0 c-60 0 -60 0 -60 30 0 27 3 30 30 30 27 0 30 3 30 30 0 27 -3 30 -30 30 -27 0 -30 3 -30 30 0 27 3 30 30 30 27 0 30 3 30 30 0 27 -3 30 -30 30 -27 0 -30 3 -30 31 0 27 -3 30 -27 27 -28 -3 -28 -3 -31 -90 -3 -86 -3 -87 -30 -90 -21 -2 -28 -9 -30 -31 -3 -23 -8 -27 -33 -27 l-29 0 0 150 0 150 30 0 30 0 0 61 c0 60 0 60 -27 57 -27 -3 -28 -6 -31 -60 -3 -57 -4 -58 -32 -58 -27 0 -30 3 -30 31 0 27 -3 30 -27 27 -22 -2 -29 -9 -31 -30 -3 -25 0 -28 27 -28 28 0 31 -3 31 -29 0 -25 -4 -30 -27 -33 -28 -3 -28 -3 -31 -90 l-3 -88 31 0 c27 0 30 -3 30 -30 l0 -30 -90 0 -90 0 0 90 0 90 -30 0 c-27 0 -30 3 -30 30 0 27 3 30 30 30 27 0 30 3 30 30 0 27 3 30 30 30 l30 0 0 61 c0 60 0 60 -27 57 -26 -3 -28 -6 -31 -60 -3 -53 -5 -57 -30 -60 -21 -2 -28 -9 -30 -30 -3 -21 -9 -27 -30 -30 -21 -2 -28 -9 -30 -30 -3 -25 -7 -27 -60 -30 -54 -3 -57 -5 -60 -30 -3 -25 -7 -27 -60 -30 l-57 -3 -3 -57 -3 -58 -59 0 c-60 0 -60 0 -60 30 0 27 3 30 30 30 27 0 30 3 30 30 0 27 -3 30 -30 30 -27 0 -30 3 -30 30 l0 30 60 0 60 0 0 30 0 30 -60 0 -60 0 0 -30 c0 -27 -3 -30 -30 -30 -27 0 -30 -3 -30 -30 0 -27 -3 -30 -30 -30 -27 0 -30 -3 -30 -30 0 -27 3 -30 30 -30 27 0 30 -3 30 -30 0 -27 3 -30 30 -30 27 0 30 -3 30 -30 l0 -30 60 0 60 0 0 30 c0 27 3 30 30 30 l30 0 0 -60 0 -60 30 0 c27 0 30 -3 30 -29 0 -25 -4 -30 -27 -33 -22 -2 -29 -9 -31 -31 -3 -24 0 -27 27 -27 28 0 31 -3 31 -29 0 -25 -4 -30 -27 -33 -22 -2 -29 -9 -31 -30 -3 -28 -3 -28 57 -28 61 0 61 0 61 -29 0 -25 -4 -30 -27 -33 -22 -2 -29 -9 -31 -30 -3 -21 -9 -27 -30 -30 -25 -3 -27 -6 -30 -61 l-3 -57 31 0 c27 0 30 -3 30 -30 0 -27 3 -30 30 -30 l30 0 0 60 0 60 -30 0 c-27 0 -30 3 -30 30 0 27 3 30 30 30 27 0 30 3 30 30 l0 30 60 0 60 0 0 60 0 60 90 0 90 0 0 -60 0 -60 -30 0 c-27 0 -30 3 -30 31 0 27 -3 30 -27 27 -27 -3 -28 -6 -31 -60 l-3 -58 31 0 c27 0 30 -3 30 -29 0 -25 -4 -30 -27 -33 -27 -3 -28 -6 -31 -60 l-3 -58 31 0 30 0 0 60 0 60 60 0 60 0 0 60 0 60 30 0 c27 0 30 -3 30 -30 l0 -30 60 0 60 0 0 -30 0 -30 60 0 60 0 0 90 0 90 -30 0 c-27 0 -30 3 -30 30 0 27 3 30 30 30 27 0 30 3 30 30 0 27 -3 30 -30 30 -27 0 -30 3 -30 30 0 27 -3 30 -30 30 l-30 0 0 60 0 60 30 0 c27 0 30 -3 30 -30 l0 -30 60 0 60 0 0 -90 0 -90 30 0 c27 0 30 3 30 30 0 27 3 30 30 30 27 0 30 -3 30 -30 0 -27 3 -30 30 -30 l30 0 0 60 0 60 30 0 c27 0 30 -3 30 -30 l0 -30 60 0 60 0 0 -30 0 -30 60 0 60 0 0 -30 c0 -27 3 -30 30 -30 27 0 30 -3 30 -30 0 -27 -3 -30 -30 -30 -27 0 -30 -3 -30 -30 0 -27 -3 -30 -30 -30 -27 0 -30 -3 -30 -30 0 -27 3 -30 30 -30 27 0 30 -3 30 -30 0 -27 3 -30 30 -30 l30 0 0 90 0 90 30 0 c27 0 30 3 30 30 0 27 -3 30 -30 30 l-30 0 0 90 0 90 30 0 c27 0 30 3 30 30 0 27 -3 30 -30 30 -27 0 -30 3 -30 30 0 27 -3 30 -30 30 l-30 0 0 60 0 60 60 0 60 0 0 30 c0 27 3 30 30 30 l30 0 0 -90 0 -90 30 0 c27 0 30 -3 30 -29 0 -25 -4 -30 -27 -33 -28 -3 -28 -3 -31 -90 l-3 -88 31 0 c27 0 30 3 30 30 0 27 3 30 30 30 27 0 30 -3 30 -30 0 -27 3 -30 30 -30 l30 0 0 60 0 60 60 0 60 0 0 -30 c0 -27 3 -30 30 -30 27 0 30 3 30 30 0 27 3 30 30 30 27 0 30 3 30 30 0 27 3 30 30 30 27 0 30 3 30 30 0 27 3 30 30 30 27 0 30 3 30 30 0 27 3 30 30 30 27 0 30 3 30 31 0 27 -3 30 -27 27 -22 -2 -29 -9 -31 -30 -3 -27 -5 -28 -63 -28 -59 0 -59 0 -59 30 0 27 -3 30 -30 30 -27 0 -30 3 -30 30 l0 30 60 0 60 0 0 61 c0 60 0 60 -27 57 -22 -2 -29 -9 -31 -31 -3 -26 -5 -27 -63 -27 -59 0 -59 0 -59 -30 0 -27 -3 -30 -30 -30 -27 0 -30 3 -30 31 0 27 -3 30 -27 27 -22 -2 -29 -9 -31 -30 -3 -25 0 -28 27 -28 l31 0 0 -60 0 -60 -30 0 c-27 0 -30 3 -30 30 0 27 -3 30 -30 30 l-30 0 0 60 0 60 -30 0 c-27 0 -30 3 -30 30 0 27 3 30 30 30 27 0 30 3 30 30 0 27 3 30 30 30 27 0 30 3 30 30 0 27 -3 30 -30 30 -27 0 -30 -3 -30 -30 0 -27 -3 -30 -30 -30 -27 0 -30 3 -30 31 0 27 -3 30 -27 27 -28 -3 -28 -3 -31 -90 -3 -86 -3 -87 -30 -90 -21 -2 -28 -9 -30 -30 -3 -24 -8 -28 -33 -28 -29 0 -29 0 -29 60 l0 60 30 0 30 0 0 60 0 60 -90 0 -90 0 0 30 c0 27 3 30 30 30 27 0 30 3 30 30 0 27 3 30 30 30 27 0 30 3 30 30 0 27 3 30 30 30 27 0 30 3 30 30 0 27 -3 30 -30 30 l-30 0 0 60 0 60 -30 0 -30 0 0 60 0 60 30 0 c27 0 30 -3 30 -30 0 -27 3 -30 30 -30 27 0 30 3 30 30 0 27 -3 30 -30 30 l-30 0 0 90 0 90 30 0 c27 0 30 3 30 31 0 27 -3 30 -27 27 -22 -2 -29 -9 -31 -30 -3 -24 -8 -28 -33 -28 -26 0 -29 3 -29 30 0 27 -3 30 -30 30 l-30 0 0 60 0 60 30 0 c27 0 30 -3 30 -30 l0 -30 90 0 90 0 0 30 0 30 60 0 60 0 0 150 0 150 30 0 c27 0 30 3 30 30 l0 30 -90 0 -90 0 0 150 0 150 -30 0 c-27 0 -30 -3 -30 -29 0 -25 -4 -30 -27 -33 -22 -2 -29 -9 -31 -30 -3 -21 -9 -27 -30 -30 -21 -2 -28 -9 -30 -30 -3 -24 -8 -28 -33 -28 -26 0 -29 3 -29 31 0 27 -3 30 -27 27 -22 -2 -29 -9 -31 -30 -3 -25 0 -28 27 -28 l31 0 0 -60 0 -60 -60 0 -60 0 0 121 0 120 -27 -3 -28 -3 -3 -117 -3 -117 -117 -3 -117 -3 -3 -57 c-3 -57 -4 -58 -32 -58 -27 0 -30 3 -30 30 0 27 -3 30 -30 30 -27 0 -30 3 -30 30 0 27 3 30 30 30 27 0 30 3 30 30 l0 30 -60 0 -60 0 0 60 0 60 -30 0 c-27 0 -30 3 -30 30 l0 30 -60 0 -60 0 0 60 0 60 -30 0 c-27 0 -30 3 -30 30 0 27 -3 30 -30 30 -27 0 -30 3 -30 30 0 25 -4 30 -23 30 -13 0 -27 -3 -30 -7z m293 -323 c0 -27 -3 -30 -30 -30 -27 0 -30 3 -30 30 0 27 3 30 30 30 27 0 30 -3 30 -30z m840 -90 l0 -120 -60 0 -60 0 0 -30 0 -30 90 0 90 0 0 30 c0 27 3 30 30 30 27 0 30 -3 30 -30 0 -27 -3 -30 -30 -30 -27 0 -30 -3 -30 -30 0 -27 3 -30 30 -30 27 0 30 -3 30 -29 0 -25 -4 -30 -27 -33 -27 -3 -28 -6 -31 -60 l-3 -58 -59 0 c-60 0 -60 0 -60 30 0 27 -3 30 -30 30 -27 0 -30 3 -30 31 0 27 -3 30 -27 27 -26 -3 -28 -6 -31 -60 -3 -53 -5 -57 -30 -60 -27 -3 -27 -4 -30 -90 l-3 -88 31 0 c27 0 30 -3 30 -29 0 -25 -4 -30 -27 -33 -27 -3 -28 -6 -31 -60 l-3 -58 31 0 c27 0 30 3 30 30 0 27 3 30 30 30 27 0 30 -3 30 -30 0 -27 -3 -30 -30 -30 l-30 0 0 -60 0 -60 -30 0 -30 0 0 60 0 60 -90 0 -90 0 0 30 c0 27 3 30 30 30 27 0 30 3 30 30 0 27 3 30 30 30 l30 0 0 150 0 150 -30 0 c-27 0 -30 -3 -30 -30 0 -27 -3 -30 -30 -30 l-30 0 0 -60 0 -60 -30 0 -30 0 0 60 0 60 30 0 c27 0 30 3 30 30 0 27 3 30 30 30 27 0 30 3 30 30 0 27 -3 30 -30 30 -27 0 -30 3 -30 30 0 27 3 30 30 30 27 0 30 3 30 30 0 27 3 30 30 30 27 0 30 3 30 30 0 27 -3 30 -30 30 -27 0 -30 3 -30 30 0 27 3 30 30 30 27 0 30 -3 30 -30 0 -27 3 -30 30 -30 l30 0 0 -60 0 -60 30 0 30 0 0 60 0 60 30 0 30 0 0 90 0 90 30 0 c27 0 30 3 30 30 0 27 3 30 30 30 l30 0 0 -120z m-780 -60 l0 -60 30 0 c27 0 30 -3 30 -30 0 -27 -3 -30 -30 -30 -27 0 -30 3 -30 30 l0 30 -60 0 -60 0 0 60 0 60 60 0 60 0 0 -60z m300 -150 l0 -90 -30 0 -30 0 0 90 0 90 30 0 30 0 0 -90z m-240 -420 c0 -27 -3 -30 -30 -30 -27 0 -30 3 -30 30 0 27 3 30 30 30 27 0 30 -3 30 -30z m660 -720 c0 -27 -3 -30 -30 -30 -27 0 -30 3 -30 30 0 27 3 30 30 30 27 0 30 -3 30 -30z m-1140 -149 c0 -58 -1 -60 -27 -63 -22 -2 -29 -9 -31 -30 -3 -25 0 -28 27 -28 l31 0 0 -90 0 -90 60 0 60 0 0 -30 0 -30 -60 0 -60 0 0 -30 c0 -27 -3 -30 -30 -30 -27 0 -30 -3 -30 -30 0 -27 -3 -30 -30 -30 -27 0 -30 3 -30 30 0 27 3 30 30 30 27 0 30 3 30 30 0 27 3 30 30 30 27 0 30 3 30 30 0 27 -3 30 -30 30 l-30 0 0 90 0 90 -30 0 c-27 0 -30 3 -30 30 0 27 -3 30 -30 30 -27 0 -30 -3 -30 -30 0 -27 -3 -30 -30 -30 -27 0 -30 3 -30 30 0 27 3 30 30 30 27 0 30 3 30 30 l0 30 60 0 60 0 0 30 c0 27 3 30 30 30 30 0 30 0 30 -59z m-420 -31 c0 -27 -3 -30 -30 -30 -27 0 -30 3 -30 30 0 27 3 30 30 30 27 0 30 -3 30 -30z m900 -60 c0 -27 -3 -30 -30 -30 -27 0 -30 3 -30 30 0 27 3 30 30 30 27 0 30 -3 30 -30z m240 0 c0 -27 -3 -30 -30 -30 -27 0 -30 3 -30 30 0 27 3 30 30 30 27 0 30 -3 30 -30z m120 -60 l0 -90 -30 0 -30 0 0 90 0 90 30 0 30 0 0 -90z m540 60 c0 -27 3 -30 30 -30 l30 0 0 -60 0 -60 -30 0 c-27 0 -30 -3 -30 -30 0 -27 -3 -30 -30 -30 -27 0 -30 3 -30 30 0 27 3 30 30 30 l30 0 0 60 0 60 -30 0 c-27 0 -30 3 -30 30 0 27 3 30 30 30 27 0 30 -3 30 -30z m-420 -90 l0 -60 30 0 30 0 0 -60 0 -60 -30 0 -30 0 0 60 0 60 -30 0 -30 0 0 60 0 60 30 0 30 0 0 -60z m600 30 c0 -27 -3 -30 -30 -30 -27 0 -30 3 -30 30 0 27 3 30 30 30 27 0 30 -3 30 -30z m120 0 c0 -27 -3 -30 -30 -30 -27 0 -30 3 -30 30 0 27 3 30 30 30 27 0 30 -3 30 -30z m-1800 -60 c0 -27 -3 -30 -30 -30 -27 0 -30 3 -30 30 0 27 3 30 30 30 27 0 30 -3 30 -30z m240 0 c0 -27 -3 -30 -30 -30 -27 0 -30 3 -30 30 0 27 3 30 30 30 27 0 30 -3 30 -30z m120 -30 l0 -60 -30 0 -30 0 0 60 0 60 30 0 30 0 0 -60z m120 30 c0 -27 -3 -30 -30 -30 -27 0 -30 3 -30 30 0 27 3 30 30 30 27 0 30 -3 30 -30z m360 -30 l0 -60 -30 0 -30 0 0 60 0 60 30 0 30 0 0 -60z m900 -30 c0 -27 -3 -30 -30 -30 -27 0 -30 3 -30 30 0 27 3 30 30 30 27 0 30 -3 30 -30z m-1740 -60 c0 -27 -3 -30 -30 -30 -27 0 -30 3 -30 30 0 27 3 30 30 30 27 0 30 -3 30 -30z m360 -60 c0 -27 -3 -30 -30 -30 -27 0 -30 3 -30 30 0 27 3 30 30 30 27 0 30 -3 30 -30z m240 0 c0 -27 -3 -30 -30 -30 l-30 0 0 -60 0 -60 30 0 c27 0 30 -3 30 -30 0 -27 -3 -30 -30 -30 -27 0 -30 3 -30 30 l0 30 -60 0 -60 0 0 60 0 60 60 0 60 0 0 30 c0 27 3 30 30 30 27 0 30 -3 30 -30z" />
                <path d="M1780 2390 c0 -27 3 -30 30 -30 27 0 30 3 30 30 0 27 -3 30 -30 30 -27 0 -30 -3 -30 -30z" />
                <path
                  d="M1607 3073 c-4 -3 -7 -17 -7 -30 0 -19 5 -23 30 -23 27 0 30 -3 30 -29 0 -25 -4 -30 -27 -33 -22 -2 -29 -9 -31 -30 -3 -25 0 -28 27 -28 28 0 31 3 31 30 0 27 3 30 30 30 27 0 30 -3 30 -30 0 -27 3 -30 30 -30 27 0 30 3 30 30 0 27 -3 30 -30 30 -27 0 -30 3 -30 30 0 27 -3 30 -30 30 -27 0 -30 3 -30 30 0 25 -4 30 -23 30 -13 0 -27 -3 -30 -7z" />
                <path
                  d="M1300 2991 c0 -25 -4 -30 -27 -33 -22 -2 -29 -9 -31 -30 -3 -25 0 -28 27 -28 28 0 31 3 31 30 0 27 3 30 30 30 l30 0 0 -60 0 -60 30 0 30 0 0 -60 0 -60 30 0 30 0 0 60 0 60 -30 0 -30 0 0 60 0 60 -30 0 c-27 0 -30 3 -30 30 0 27 -3 30 -30 30 -27 0 -30 -3 -30 -29z" />
                <path d="M1480 2990 c0 -27 3 -30 30 -30 27 0 30 3 30 30 0 27 -3 30 -30 30 -27 0 -30 -3 -30 -30z" />
                <path
                  d="M1547 2833 c-4 -3 -7 -44 -7 -90 l0 -83 90 0 90 0 0 90 0 90 -83 0 c-46 0 -87 -3 -90 -7z m113 -83 c0 -27 -3 -30 -30 -30 -27 0 -30 3 -30 30 0 27 3 30 30 30 27 0 30 -3 30 -30z" />
                <path d="M700 2750 c0 -27 3 -30 30 -30 27 0 30 3 30 30 0 27 -3 30 -30 30 -27 0 -30 -3 -30 -30z" />
                <path d="M2380 2750 c0 -27 3 -30 30 -30 27 0 30 3 30 30 0 27 -3 30 -30 30 -27 0 -30 -3 -30 -30z" />
                <path
                  d="M527 2593 c-4 -3 -7 -17 -7 -30 0 -19 -5 -23 -30 -23 -27 0 -30 -3 -30 -29 0 -25 -4 -30 -27 -33 -22 -2 -29 -9 -31 -30 l-3 -28 90 0 91 0 0 -30 c0 -28 -1 -29 -57 -32 -55 -3 -58 -4 -61 -30 -3 -24 -8 -28 -33 -28 -26 0 -29 3 -29 31 0 27 -3 30 -27 27 -22 -2 -29 -9 -31 -30 -3 -27 -5 -28 -63 -28 -59 0 -59 0 -59 -30 l0 -30 90 0 90 0 0 -30 0 -30 120 0 120 0 0 30 0 30 -60 0 -60 0 0 30 c0 27 3 30 30 30 27 0 30 3 30 30 0 27 3 30 30 30 l30 0 0 90 0 90 60 0 60 0 0 30 0 30 -113 0 c-63 0 -117 -3 -120 -7z m53 -83 c0 -27 -3 -30 -30 -30 -27 0 -30 3 -30 30 0 27 3 30 30 30 27 0 30 -3 30 -30z" />
                <path
                  d="M2920 2570 c0 -27 -3 -30 -30 -30 -27 0 -30 -3 -30 -30 0 -27 3 -30 30 -30 l30 0 0 -60 0 -60 30 0 30 0 0 -60 0 -60 -30 0 c-27 0 -30 3 -30 30 0 27 -3 30 -30 30 -27 0 -30 3 -30 30 0 27 -3 30 -30 30 l-30 0 0 90 0 90 -30 0 c-27 0 -30 -3 -30 -30 0 -27 -3 -30 -30 -30 -27 0 -30 -3 -30 -30 0 -27 3 -30 30 -30 27 0 30 -3 30 -30 0 -27 3 -30 30 -30 27 0 30 -3 30 -30 0 -27 3 -30 30 -30 l30 0 0 -90 0 -90 30 0 c27 0 30 -3 30 -30 0 -27 -3 -30 -30 -30 -27 0 -30 -3 -30 -30 0 -27 3 -30 30 -30 l30 0 0 -60 0 -60 -60 0 -60 0 0 -30 0 -30 90 0 90 0 0 -30 c0 -28 -1 -29 -57 -32 l-58 -3 -3 -57 -3 -58 31 0 c27 0 30 -3 30 -30 l0 -30 60 0 60 0 0 60 0 60 -30 0 c-27 0 -30 3 -30 30 0 27 3 30 30 30 l30 0 0 150 0 150 -30 0 c-27 0 -30 3 -30 30 0 27 3 30 30 30 27 0 30 3 30 30 0 27 -3 30 -30 30 -27 0 -30 3 -30 30 0 27 3 30 30 30 l30 0 0 90 0 90 -30 0 -30 0 0 90 0 90 -30 0 c-27 0 -30 -3 -30 -30z m60 -540 c0 -27 -3 -30 -30 -30 -27 0 -30 3 -30 30 0 27 3 30 30 30 27 0 30 -3 30 -30z" />
                <path
                  d="M707 2473 c-4 -3 -7 -17 -7 -30 0 -19 5 -23 30 -23 27 0 30 3 30 30 0 25 -4 30 -23 30 -13 0 -27 -3 -30 -7z" />
                <path
                  d="M1007 2413 c-4 -3 -7 -30 -7 -60 0 -52 0 -53 30 -53 l30 0 0 60 c0 56 -1 60 -23 60 -13 0 -27 -3 -30 -7z" />
                <path
                  d="M1247 2413 c-4 -3 -7 -30 -7 -60 0 -52 0 -53 30 -53 l30 0 0 60 c0 56 -1 60 -23 60 -13 0 -27 -3 -30 -7z" />
                <path
                  d="M1127 2353 c-4 -3 -7 -17 -7 -30 0 -19 5 -23 30 -23 27 0 30 3 30 30 0 25 -4 30 -23 30 -13 0 -27 -3 -30 -7z" />
                <path
                  d="M1487 2233 c-4 -3 -7 -17 -7 -30 0 -19 5 -23 30 -23 27 0 30 3 30 30 0 25 -4 30 -23 30 -13 0 -27 -3 -30 -7z" />
                <path
                  d="M2327 2113 c-4 -3 -7 -17 -7 -30 0 -19 5 -23 30 -23 27 0 30 3 30 30 0 25 -4 30 -23 30 -13 0 -27 -3 -30 -7z" />
                <path
                  d="M1067 2053 c-4 -3 -7 -17 -7 -30 0 -19 5 -23 30 -23 27 0 30 3 30 30 0 25 -4 30 -23 30 -13 0 -27 -3 -30 -7z" />
                <path d="M340 1910 c0 -27 3 -30 30 -30 27 0 30 3 30 30 0 27 -3 30 -30 30 -27 0 -30 -3 -30 -30z" />
                <path
                  d="M580 1910 c0 -27 -3 -30 -30 -30 -27 0 -30 -3 -30 -30 0 -27 3 -30 30 -30 27 0 30 3 30 30 0 27 3 30 30 30 27 0 30 3 30 30 0 27 -3 30 -30 30 -27 0 -30 -3 -30 -30z" />
                <path
                  d="M820 1850 c0 -28 -1 -29 -57 -32 l-58 -3 -3 -87 -3 -88 31 0 c27 0 30 -3 30 -29 0 -25 -4 -30 -27 -33 -27 -3 -28 -6 -31 -60 l-3 -58 31 0 c27 0 30 -3 30 -30 l0 -30 -60 0 -60 0 0 -30 0 -30 60 0 60 0 0 -30 c0 -27 3 -30 30 -30 27 0 30 3 30 30 0 27 3 30 30 30 27 0 30 3 30 30 0 27 3 30 30 30 l30 0 0 61 c0 60 0 60 -27 57 -27 -3 -28 -6 -31 -60 -3 -57 -4 -58 -32 -58 -30 0 -30 0 -30 60 l0 60 -30 0 c-27 0 -30 3 -30 30 0 27 3 30 30 30 27 0 30 3 30 30 0 27 3 30 30 30 27 0 30 3 30 30 l0 30 -60 0 -60 0 0 30 c0 27 3 30 30 30 27 0 30 3 30 30 0 27 3 30 30 30 27 0 30 3 30 30 0 27 -3 30 -30 30 -27 0 -30 -3 -30 -30z" />
                <path
                  d="M227 1813 c-4 -3 -7 -30 -7 -60 0 -52 0 -53 30 -53 27 0 30 -3 30 -30 l0 -30 60 0 60 0 0 30 c0 27 -3 30 -30 30 -27 0 -30 3 -30 30 0 27 3 30 30 30 27 0 30 3 30 30 l0 30 -83 0 c-46 0 -87 -3 -90 -7z" />
                <path
                  d="M467 1753 c-4 -3 -7 -44 -7 -90 l0 -83 90 0 90 0 0 90 0 90 -83 0 c-46 0 -87 -3 -90 -7z m113 -83 c0 -27 -3 -30 -30 -30 -27 0 -30 3 -30 30 0 27 3 30 30 30 27 0 30 -3 30 -30z" />
                <path
                  d="M1547 1753 c-4 -3 -7 -44 -7 -90 l0 -83 90 0 90 0 0 90 0 90 -83 0 c-46 0 -87 -3 -90 -7z m113 -83 c0 -27 -3 -30 -30 -30 -27 0 -30 3 -30 30 0 27 3 30 30 30 27 0 30 -3 30 -30z" />
                <path
                  d="M2440 1730 c0 -27 -3 -30 -30 -30 -27 0 -30 -3 -30 -29 0 -25 -4 -30 -27 -33 -22 -2 -29 -9 -31 -30 -3 -25 0 -28 27 -28 28 0 31 3 31 30 0 27 3 30 30 30 27 0 30 3 30 30 l0 30 60 0 60 0 0 30 0 30 -60 0 -60 0 0 -30z" />
                <path
                  d="M2627 1753 c-4 -3 -7 -44 -7 -90 l0 -83 90 0 90 0 0 90 0 90 -83 0 c-46 0 -87 -3 -90 -7z m113 -83 c0 -27 -3 -30 -30 -30 -27 0 -30 3 -30 30 0 27 3 30 30 30 27 0 30 -3 30 -30z" />
                <path
                  d="M1120 1640 l0 -60 -60 0 -60 0 0 -30 0 -30 60 0 60 0 0 30 0 30 60 0 60 0 0 -30 0 -30 60 0 60 0 0 -30 c0 -27 3 -30 30 -30 27 0 30 3 30 30 0 27 3 30 30 30 27 0 30 -3 30 -30 l0 -30 120 0 120 0 0 30 0 30 -120 0 -120 0 0 60 0 60 -30 0 c-27 0 -30 3 -30 30 0 27 -3 30 -30 30 l-30 0 0 -60 0 -60 -60 0 -60 0 0 60 0 60 -60 0 -60 0 0 -60z m300 -90 c0 -27 -3 -30 -30 -30 -27 0 -30 3 -30 30 0 27 3 30 30 30 27 0 30 -3 30 -30z" />
                <path
                  d="M347 1573 c-4 -3 -7 -17 -7 -30 0 -19 5 -23 30 -23 27 0 30 3 30 30 0 25 -4 30 -23 30 -13 0 -27 -3 -30 -7z" />
                <path
                  d="M2687 1513 c-4 -3 -7 -17 -7 -30 0 -19 5 -23 30 -23 27 0 30 3 30 30 0 25 -4 30 -23 30 -13 0 -27 -3 -30 -7z" />
                <path
                  d="M2927 1513 c-4 -3 -7 -30 -7 -60 0 -52 0 -53 30 -53 27 0 30 3 30 30 0 27 3 30 30 30 27 0 30 3 30 30 0 30 -1 30 -53 30 -30 0 -57 -3 -60 -7z" />
                <path
                  d="M1367 1393 c-4 -3 -7 -17 -7 -30 0 -19 5 -23 30 -23 27 0 30 3 30 30 0 25 -4 30 -23 30 -13 0 -27 -3 -30 -7z" />
                <path
                  d="M1487 1393 c-4 -3 -7 -17 -7 -30 0 -19 5 -23 30 -23 27 0 30 3 30 30 0 25 -4 30 -23 30 -13 0 -27 -3 -30 -7z" />
                <path
                  d="M400 950 c0 -27 3 -30 30 -30 27 0 30 -3 30 -30 l0 -30 90 0 90 0 0 30 0 30 -90 0 -90 0 0 30 c0 27 -3 30 -30 30 -27 0 -30 -3 -30 -30z" />
                <path
                  d="M2807 973 c-4 -3 -7 -17 -7 -29 0 -17 -7 -23 -27 -26 -22 -2 -29 -9 -31 -30 -3 -28 -3 -28 57 -28 l61 0 0 60 c0 56 -1 60 -23 60 -13 0 -27 -3 -30 -7z" />
                <path
                  d="M2507 733 c-4 -3 -7 -17 -7 -30 0 -19 5 -23 30 -23 27 0 30 3 30 30 0 25 -4 30 -23 30 -13 0 -27 -3 -30 -7z" />
                <path
                  d="M1547 673 c-4 -3 -7 -44 -7 -90 l0 -83 90 0 90 0 0 90 0 90 -83 0 c-46 0 -87 -3 -90 -7z m113 -83 c0 -27 -3 -30 -30 -30 -27 0 -30 3 -30 30 0 27 3 30 30 30 27 0 30 -3 30 -30z" />
                <path
                  d="M2627 673 c-4 -3 -7 -44 -7 -90 l0 -83 90 0 90 0 0 90 0 90 -83 0 c-46 0 -87 -3 -90 -7z m113 -83 c0 -27 -3 -30 -30 -30 -27 0 -30 3 -30 30 0 27 3 30 30 30 27 0 30 -3 30 -30z" />
                <path
                  d="M887 553 c-4 -3 -7 -17 -7 -30 0 -19 5 -23 30 -23 27 0 30 3 30 30 0 25 -4 30 -23 30 -13 0 -27 -3 -30 -7z" />
                <path
                  d="M2447 553 c-4 -3 -7 -17 -7 -30 0 -22 4 -23 60 -23 l60 0 0 30 c0 30 -1 30 -53 30 -30 0 -57 -3 -60 -7z" />
                <path
                  d="M1247 493 c-4 -3 -7 -30 -7 -60 0 -52 0 -53 -30 -53 -27 0 -30 3 -30 31 0 27 -3 30 -27 27 -22 -2 -29 -9 -31 -30 -3 -25 0 -28 27 -28 28 0 31 -3 31 -30 0 -27 3 -30 30 -30 27 0 30 -3 30 -30 0 -27 3 -30 30 -30 l30 0 0 120 c0 119 0 120 -23 120 -13 0 -27 -3 -30 -7z" />
                <path
                  d="M887 433 c-4 -3 -7 -17 -7 -30 0 -19 5 -23 30 -23 27 0 30 3 30 30 0 25 -4 30 -23 30 -13 0 -27 -3 -30 -7z" />
                <path
                  d="M1367 433 c-4 -3 -7 -17 -7 -30 0 -19 5 -23 30 -23 27 0 30 -3 30 -30 0 -27 3 -30 30 -30 27 0 30 3 30 30 0 27 3 30 30 30 27 0 30 3 30 31 0 27 -3 30 -27 27 -22 -2 -29 -9 -31 -30 -3 -24 -8 -28 -33 -28 -26 0 -29 3 -29 30 0 25 -4 30 -23 30 -13 0 -27 -3 -30 -7z" />
                <path
                  d="M707 313 c-4 -3 -7 -17 -7 -30 0 -22 4 -23 60 -23 l60 0 0 30 c0 30 -1 30 -53 30 -30 0 -57 -3 -60 -7z" />
                <path d="M1720 290 c0 -27 3 -30 30 -30 27 0 30 3 30 30 0 27 -3 30 -30 30 -27 0 -30 -3 -30 -30z" />
                <path
                  d="M2740 2930 l0 -150 150 0 150 0 0 150 0 150 -150 0 -150 0 0 -150z m240 0 l0 -90 -90 0 -90 0 0 90 0 90 90 0 90 0 0 -90z" />
                <path
                  d="M220 410 l0 -150 150 0 150 0 0 150 0 150 -150 0 -150 0 0 -150z m240 0 l0 -90 -90 0 -90 0 0 90 0 90 90 0 90 0 0 -90z" />
              </g>
            </svg>